<?xml version="1.0" encoding="UTF-8"?>
<svg version="1.1" viewBox="0 0 2048 494" width="200%" height="auto" xmlns="http://www.w3.org/2000/svg">
<path transform="translate(327,152)" d="m0 0h7l178 40 3 2-20 40-11 23-14 28-4 6h-271l-10-19-39-78 3-2 134-30zm2 3-34 8 1 2 28 13 7 3 27-13 7-3v-2l-33-8zm-46 11-76 18-7 2 3 3 36 16 8-1 73-20-3-3-30-15zm91 0-30 15-3 1v2l77 21 7-1 28-13 8-4-3-2-80-19zm-47 20-81 24 6 7 26 26 2 1h102l33-33-3-2-71-21-7-2zm-142 3-30 7-1 3 9 16h8l54-7 3-2-38-17zm286 0-37 17 2 2 55 7h7l6-10 3-6-1-3-30-7zm-48 23-10 10-7 8-7 7-7 8v1l23 3 57 6h5l17-32v-2l-26-4-39-5zm-191 0-62 8-3 1 2 6 12 22 4 6 14-1 66-7 4-2-12-13-14-15-5-5zm51 38-9 36 1 1h111l1-3-8-32-1-2zm104 1 2 10 8 25 1 1h60l3-3 10-18v-2l-80-13zm-117 0-75 12-5 1 2 5 9 16 2 2h60l3-6 9-30z" fill="#cccccc"/>
<path transform="translate(318,83)" d="m0 0h27l28 2 32 5 28 7 26 9 20 9 17 9 21 14 11 9 12 11 11 12 9 13 9 16 6 16 4 20v25l-3 16-5 15-11 21-9 12-9 10-5 6-8 7-15 12-19 12-23 12-25 10-23 7-27 6-29 4-12 1h-51l-28-3-31-6-28-8-28-11-25-13-15-10-13-10-12-11-10-10-12-16-10-18-6-17-3-13-1-8v-19l3-18 6-18 9-17 10-14 9-10 6-7 8-7 14-11 15-10 22-12 24-10 24-8 25-6 32-5zm0 8-28 2-26 4-22 5-20 6-19 7-20 9-19 11-17 12-13 11-12 12-10 13-9 15-6 14-5 19-1 8v17l3 17 5 15 8 16 10 14 12 14 13 12 15 11 18 11 17 9 25 10 26 8 29 6 22 3 12 1h51l27-3 22-4 24-6 24-8 24-11 15-8 15-10 13-10 12-11 7-7 13-17 10-19 5-15 3-15v-23l-3-16-6-16-7-14-10-14-11-12-11-11-17-13-18-11-17-9-25-10-18-6-25-6-23-4-19-2-18-1z" fill="#cccccc"/>
<path transform="translate(142,195)" d="m0 0h2l12 25 37 74h275l49-98h3l3 5v21l-13 28-14 30-13 28-12 26h-1v-30h-56l-56-1 4 9v2h-63l4-11-51 1h-60v30l-3-3-18-38-13-28-14-30-5-11v-24z" fill="#cccccc"/>
<path transform="translate(329,189)" d="m0 0 10 2 67 20-1 4h-2l-2 4-10 9-10-2-40-12-4 2h-13l-4-2-47 14-4-1-14-14v-2z" fill="#cccccc"/>
<path transform="translate(1586,201)" d="m0 0h42l10 2 9 4 9 7 7 11 3 11v12l-3 12-6 10-9 8-8 4-7 2h-48l1-4 7-2 1-1v-70l-9-2zm27 6-5 2-2 4v57l2 6 5 2h19l9-4 5-5 3-4 3-9 1-6v-15l-4-13-6-8-5-4-9-3z" fill="#cccccc"/>
<path transform="translate(853,201)" d="m0 0h42l14 3 10 6 7 7 6 12 1 4v18l-3 10-7 11-9 7-10 4-4 1h-47v-4l8-2 1-7v-55l-1-8-8-3zm27 6-5 2-1 2v62l3 4 4 1h19l10-5 6-7 4-12 1-16-3-13-6-10-9-6-7-2z" fill="#cccccc"/>
<path transform="translate(1212,229)" d="m0 0 2 1v6l7-5 5-2h10l6 4 1 4 9-6 6-2h10l5 3 4 5 2 6 1 29 1 6 7 2v4h-28l1-4 7-2v-31l-3-6-4-3h-9l-5 4v32l1 4 7 3v3h-28l1-4 7-1v-31l-3-7-4-3h-7l-6 4-1 1v32l1 3 7 3v3h-28l1-4 7-1v-38l-2-3-6-2v-3l9-2z" fill="#cccccc"/>
<path transform="translate(364,306)" d="m0 0 102 1v28h-64l-1-20h-13l-1 21h-20l-1-21-3-8zm45 8-1 1v12h5v-13zm11 0v13h5v-12zm12 0v13h5v-12zm12 0v13h5v-12zm11 0v13h5v-12zm-77 0-4 1v12h6v-12z" fill="#cccccc"/>
<path transform="translate(294,306)" d="m0 0h4l-3 9-1 21h-20v-22l-14 1-1 20h-64v-28zm-92 8-1 1v12h5v-13zm12 0-1 1v12h5v-13zm11 0v13h5v-12zm12 0-1 1v12h5l1-12zm11 0v13h5v-13zm34 0-1 1v12h6v-12z" fill="#cccccc"/>
<path transform="translate(641,201)" d="m0 0h31l-1 4-7 2-1 7v38l3 12 6 9 6 3 9 1 8-2 7-6 3-9v-53l-9-2-1-4h30v3l-10 4-1 46-2 12-4 8-8 7-11 3h-14l-11-4-6-5-5-10-2-10-1-46-3-3-6-2z" fill="#cccccc"/>
<path transform="translate(1006,229)" d="m0 0h2l1 3 8-3h9l8 3 6 5 6 12v12l-4 10-8 9-7 4-4 1h-10l-5-2 1 23 8 3v3h-28l-1-3 8-3 1-15v-48l-3-5-6-2 2-4zm6 7-4 3-1 9v22l2 6 5 3h10l7-6 4-10v-10l-3-9-8-7-2-1z" fill="#cccccc"/>
<path transform="translate(772,200)" d="m0 0h9l13 3 2 4v16h-4l-4-9-4-5-4-2h-11l-4 2-3 9 2 8 8 7 19 12 7 7 3 7v7l-3 8-7 7-10 4h-15l-14-3-2-6-1-6v-9h5l4 10 7 6 6 2h7l8-4 3-8-2-9-7-6-16-9-9-8-4-8v-9l5-10 9-6z" fill="#cccccc"/>
<path transform="translate(1827,229)" d="m0 0 2 1v6l9-6 3-1h10l6 3 3 5 2 10 1 29 3 3 5 2v3h-28l1-4 7-1v-30l-2-7-1-3-4-1h-8l-6 4-1 1v32l1 3 7 3v3h-28l1-4 7-1v-38l-2-3-6-2v-3z" fill="#cccccc"/>
<path transform="translate(1358,229)" d="m0 0 2 1v6l9-6 3-1h10l5 3 4 5 2 10 1 30 8 4v3h-28l1-4 7-1v-30l-3-9-4-2h-8l-6 4-1 1v33l3 3 5 2v3h-28l1-4 7-1v-38l-3-3-5-2v-3z" fill="#cccccc"/>
<path transform="translate(1553,196)" d="m0 0h9l5 3v7l-3 3-4-1-6-6-5 1-5 7-5 15-2 8h15v5l-1 1h-15l-5 29-4 19-5 12-7 9-10 5h-8l-5-3-1-5 2-4 5-1 6 7 5-1 4-6 5-16 8-45h-8l2-5 1-1h7l2-11 7-14 6-7z" fill="#cccccc"/>
<path transform="translate(1073,229)" d="m0 0h9l6 3 2 4 1 6 1 34 1 1h8l-1 4-7 4-6-1-6-5-8 5-3 1h-8l-6-3-3-5v-8l4-6 6-4 16-6h2l-1-12-3-5-7-1-4 1-3 11-7 1-3-2 1-5 4-5 8-5zm5 30-10 4-4 4v7l3 3h8l5-3 1-2v-13z" fill="#cccccc"/>
<path transform="translate(1939,229)" d="m0 0h10l8 3 6 7 2 5 1 8-2 3h-35l3 10 4 6 3 3 10 2 10-3 5-1-2 5-6 5-8 3h-7l-9-3-8-7-4-8-1-4v-11l3-10 6-8 7-4zm0 5-7 6-2 5 1 5h23l1-5-5-8-4-3z" fill="#cccccc"/>
<path transform="translate(961,229)" d="m0 0h9l8 3 6 7 3 9-1 7h-36l4 12 5 6 9 3 10-2 4-2h3l-2 5-7 6-7 2h-7l-9-3-6-5-5-8-2-7v-9l3-11 9-10zm0 5-5 3-5 8 1 5h23l1-5-4-8-5-3z" fill="#cccccc"/>
<path transform="translate(1693,229)" d="m0 0h10l9 4 6 9 1 3v9l-1 1h-35l3 11 5 7 9 3 11-2 6-3v5l-7 6-9 3h-7l-10-4-7-7-4-9v-16l4-9 6-7zm0 5-6 4-4 9 1 3h23l2-1-1-6-4-6-5-3z" fill="#cccccc"/>
<path transform="translate(1779,229)" d="m0 0h10l7 3 5 4 4 8 1 8-2 3h-35l4 13 5 5 9 3 10-2 6-2-1 5-8 6-6 2h-7l-9-3-8-7-4-8-1-3v-13l4-11 5-6 7-4zm0 5-5 3-5 10 1 3h23l2-1-1-6-4-6-4-3z" fill="#cccccc"/>
<path transform="translate(1310,229)" d="m0 0h10l7 3 5 4 4 9v9l-1 1h-35l4 13 5 5 9 3 10-2 6-2-1 5-8 6-6 2h-8l-10-4-8-9-3-8v-14l4-10 5-6 7-4zm0 5-5 3-5 10v2l2 1h23l1-4-4-8-5-4z" fill="#cccccc"/>
<path transform="translate(1751,197)" d="m0 0h12l5 3 1 4-2 5-4 1-5-5-3-2-7 1-4 6-2 10-1 11h15l1 2-2 4-13 1v34l1 6 7 3v3h-27v-4l7-1 1-42h-7l1-4 6-2 1-12 6-12 8-8z" fill="#cccccc"/>
<path transform="translate(1491,229)" d="m0 0h7l6 3 4 4 2 6v14l-4 11-7 9-8 7-7 2-8-1-6-4-3-7v-15l4-11 7-9 8-7zm-2 6-7 8-4 9-1 4v16l4 6 1 1h6l7-8 4-9 1-4v-16l-3-6-1-1z" fill="#cccccc"/>
<path transform="translate(1890,229)" d="m0 0h12l7 2 1 13h-4l-5-8-2-1h-8l-3 3v6l5 5 15 9 4 5 1 9-4 7-5 4-4 2h-15l-7-2-2-13 4-1 4 7 5 3 5 1 6-2 1-2v-8l-6-5-13-8-4-5-1-2v-8l4-6 6-4z" fill="#cccccc"/>
<path transform="translate(1123,229)" d="m0 0h2l1 6 6-5 3-1h9l4 3v6l-2 3-7-1-2-2h-6l-3 1-3 9v21l1 9 8 3v3h-28l-1-3 8-3v-38l-5-3-3-1 1-3 13-3z" fill="#cccccc"/>
<path transform="translate(1415,218)" d="m0 0h5v13h18l-1 6h-17l1 36 4 4 4 1 8-2 1 4-10 5h-7l-6-3-4-5-1-2-1-37-7-1v-4l8-7z" fill="#cccccc"/>
<path transform="translate(1166,218)" d="m0 0h4l1 12 17 1v5l-1 1-16 1v31l3 7 1 1h9l4-1 1 4-10 5h-8l-7-4-3-5-1-7v-32h-7v-4l8-7z" fill="#cccccc"/>
<path transform="translate(281,274)" d="m0 0h99l2 4v4h-103l1-7z" fill="#cccccc"/>
<path transform="translate(442,264)" d="m0 0 14 1 4 1-2 6-6 10h-52l-2-4v-4l38-1z" fill="#cccccc"/>
<path transform="translate(212,264)" d="m0 0h7l6 9 39 1-2 7-1 1h-51l-6-9-3-5v-2z" fill="#cccccc"/>
<path transform="translate(283,263)" d="m0 0h95l1 7h-94l-3-1z" fill="#cccccc"/>
<path transform="translate(214,218)" d="m0 0 5 5 12 15 5 7v1l-17 2-8-11-11-16v-1z" fill="#cccccc"/>
<path transform="translate(446,218)" d="m0 0 15 2-5 9-8 11-6 8-17-2 4-6 14-18z" fill="#cccccc"/>
<path transform="translate(183,222)" d="m0 0h9l17 26v1l-17 2-8-13-7-13v-2z" fill="#cccccc"/>
<path transform="translate(469,222)" d="m0 0h9l6 1-1 5-13 22-2 1-15-2 2-5 11-17z" fill="#cccccc"/>
<path transform="translate(301,179)" d="m0 0 7 1 2 1v2l-66 18h-6l-6-3 2-2z" fill="#cccccc"/>
<path transform="translate(356,179)" d="m0 0 8 1 63 16 2 2-6 3-10-1-62-17v-2z" fill="#cccccc"/>
<path transform="translate(425,216)" d="m0 0 13 1-6 8-13 15-4 5-13-1v-3l8-8 7-8z" fill="#cccccc"/>
<path transform="translate(230,216)" d="m0 0h6l14 15 10 11-1 2-13 1-22-26v-2z" fill="#cccccc"/>
<path transform="translate(286,255)" d="m0 0h90l1 4-92 1z" fill="#cccccc"/>
<path transform="translate(392,255)" d="m0 0 39 6 1 2-4 6h-33l-1-6h10l-3-3h-8z" fill="#cccccc"/>
<path transform="translate(268,255)" d="m0 0 1 4-9 1-3 2 10 1-1 6-2 1-31-1-4-7 1-1z" fill="#cccccc"/>
<path transform="translate(366,174)" d="m0 0 8 1 64 16 2 2-4 2-9-1-63-16-2-2z" fill="#cccccc"/>
<path transform="translate(291,174)" d="m0 0 7 1 1 2-18 5-51 13-7-1-2-2 18-5z" fill="#cccccc"/>
<path transform="translate(376,169)" d="m0 0 9 1 65 16 1 2-4 2-11-2-63-16z" fill="#cccccc"/>
<path transform="translate(281,169)" d="m0 0 6 1 1 2-71 18-5-1-2-2 9-3z" fill="#cccccc"/>
<path transform="translate(299,340)" d="m0 0h63v5h-63z" fill="#cccccc"/>
<path transform="translate(471,193)" d="m0 0h7l20 5-1 5-5 8-13-1v-3l5-8-8-1-8-2v-2z" fill="#cccccc"/>
<path transform="translate(183,193)" d="m0 0h7l3 1v2l-12 3h-4l6 10-9 2h-5l-6-10v-3z" fill="#cccccc"/>
<path transform="translate(330,157)" d="m0 0 27 6-2 3-10-1-12-3-9 1-12 3h-6l-1-3z" fill="#cccccc"/>
<path transform="translate(726,271)" d="m0 0h6l5 5v5l-3 4-7 1-5-5v-6z" fill="#cccccc"/>
<path transform="translate(814,271)" d="m0 0h6l4 4v6l-5 5-7-1-3-5 1-6z" fill="#cccccc"/>
<path transform="translate(327,165)" d="m0 0h7l12 3v2l-6 2-7-2-8 1-6 1-4-2v-2z" fill="#cccccc"/>
<path transform="translate(302,318)" d="m0 0 4 1v17h-5v-17z" fill="#cccccc"/>
<path transform="translate(348,318)" d="m0 0h4v18h-4z" fill="#cccccc"/>
<path transform="translate(340,318)" d="m0 0h4v18h-4z" fill="#cccccc"/>
<path transform="translate(332,318)" d="m0 0h4v18h-4z" fill="#cccccc"/>
<path transform="translate(309,318)" d="m0 0h4v18h-4z" fill="#cccccc"/>
<path transform="translate(356,318)" d="m0 0 4 1v17h-4z" fill="#cccccc"/>
<path transform="translate(325,318)" d="m0 0 4 1v17h-4z" fill="#cccccc"/>
<path transform="translate(317,318)" d="m0 0 4 1v17h-4z" fill="#cccccc"/>
<path transform="translate(264,318)" d="m0 0h5l1 3-1 11-5-1z" fill="#cccccc"/>
<path transform="translate(460,198)" d="m0 0 10 1 4 1-1 4-2 1-15-4z" fill="#cccccc"/>
<path transform="translate(196,198)" d="m0 0 8 1 1 2-16 4-2-4z" fill="#cccccc"/>
<path transform="translate(392,318)" d="m0 0h5v13l-2 1-3-1z" fill="#cccccc"/>
<path transform="translate(449,203)" d="m0 0 19 4v1l-12-1-8-1-1-2z" fill="#cccccc"/>
<path transform="translate(211,203)" d="m0 0 4 2-10 2-11 1 3-2z" fill="#cccccc"/>
<path transform="translate(329,172)" d="m0 0 7 1v2l-6 2-5-2v-2z" fill="#cccccc"/>
</svg>
